<svg id="icon-cedro" fill="none" xmlns="http://www.w3.org/2000/svg">
<path fill-rule="evenodd" clip-rule="evenodd" d="M7.36248 2.5H7.94968C7.98556 2.5 8.01997 2.51337 8.04535 2.53717C8.07072 2.56097 8.08498 2.59325 8.08498 2.6269V13.3731C8.08498 13.4068 8.07072 13.439 8.04535 13.4628C8.01997 13.4866 7.98556 13.5 7.94968 13.5H7.36248C6.59238 13.5 5.82983 13.3577 5.11838 13.0812C4.40694 12.8047 3.76054 12.3994 3.21613 11.8886C2.67171 11.3777 2.23994 10.7712 1.94548 10.1038C1.65102 9.43635 1.49965 8.72105 1.5 7.99873C1.5 6.54038 2.11765 5.14175 3.21708 4.11054C4.31651 3.07933 5.80766 2.5 7.36248 2.5ZM14.362 2.50098H9.70099C9.62478 2.50098 9.56299 2.55893 9.56299 2.63042V7.18627C9.56299 7.25776 9.62478 7.31571 9.70099 7.31571H14.362C14.4383 7.31571 14.5 7.25776 14.5 7.18627V2.63042C14.5 2.55893 14.4383 2.50098 14.362 2.50098ZM9.70099 8.64453H14.362C14.4383 8.64453 14.5 8.70248 14.5 8.77397V13.3666C14.5 13.4381 14.4383 13.4961 14.362 13.4961H9.70099C9.62478 13.4961 9.56299 13.4381 9.56299 13.3666V8.77397C9.56299 8.70248 9.62478 8.64453 9.70099 8.64453Z" fill="currentColor"/>
</svg>
