<svg id="icon-vk" fill="none" xmlns="http://www.w3.org/2000/svg">
<path d="M14.3859 4.57005C14.4793 4.26005 14.3859 4.03271 13.9446 4.03271H12.4826C12.1106 4.03271 11.9406 4.22938 11.8473 4.44538C11.8473 4.44538 11.1039 6.25805 10.0506 7.43338C9.71059 7.77538 9.55525 7.88338 9.36992 7.88338C9.27725 7.88338 9.14259 7.77538 9.14259 7.46538V4.57005C9.14259 4.19805 9.03525 4.03271 8.72525 4.03271H6.42792C6.19592 4.03271 6.05592 4.20471 6.05592 4.36871C6.05592 4.72071 6.58259 4.80205 6.63659 5.79405V7.94605C6.63659 8.41738 6.55192 8.50338 6.36525 8.50338C5.86992 8.50338 4.66459 6.68405 3.94925 4.60138C3.80992 4.19671 3.66925 4.03338 3.29592 4.03338H1.83459C1.41659 4.03338 1.33325 4.23005 1.33325 4.44605C1.33325 4.83405 1.82859 6.75405 3.64059 9.29338C4.84859 11.0274 6.54925 11.9674 8.09859 11.9674C9.02725 11.9674 9.14192 11.7587 9.14192 11.3987V10.088C9.14192 9.67072 9.23059 9.58672 9.52459 9.58672C9.74059 9.58672 10.1126 9.69605 10.9799 10.5314C11.9706 11.522 12.1346 11.9667 12.6913 11.9667H14.1526C14.5699 11.9667 14.7786 11.758 14.6586 11.346C14.5273 10.936 14.0539 10.3394 13.4259 9.63338C13.0846 9.23072 12.5746 8.79738 12.4193 8.58072C12.2026 8.30138 12.2653 8.17805 12.4193 7.93005C12.4193 7.93005 14.2006 5.42272 14.3859 4.57005Z" fill="#D0BC7A"/>
</svg>
